<?xml version="1.0" encoding="UTF-8"?>
<svg xmlns="http://www.w3.org/2000/svg" xmlns:xlink="http://www.w3.org/1999/xlink" width="50px" height="50px" viewBox="0 0 50 50" version="1.1">
<g id="surface1">
<path style=" stroke:none;fill-rule:nonzero;fill:rgb(0%,0%,0%);fill-opacity:1;" d="M 23.195312 0.644531 C 23.039062 0.664062 22.480469 0.730469 21.972656 0.789062 C 17.726562 1.269531 13.488281 3.046875 9.863281 5.847656 C 8.789062 6.679688 6.671875 8.796875 5.839844 9.871094 C 3.136719 13.359375 1.496094 17.214844 0.8125 21.648438 C 0.585938 23.113281 0.585938 26.882812 0.8125 28.347656 C 1.90625 35.449219 5.625 41.375 11.425781 45.261719 C 14.648438 47.421875 17.960938 48.660156 22.023438 49.238281 C 23.339844 49.421875 26.933594 49.394531 28.371094 49.1875 C 32.011719 48.652344 35.507812 47.3125 38.476562 45.332031 C 44.503906 41.296875 48.203125 35.320312 49.238281 27.976562 C 49.40625 26.816406 49.394531 23.164062 49.230469 21.972656 C 48.371094 15.769531 45.382812 10.261719 40.773438 6.375 C 37.285156 3.425781 32.941406 1.472656 28.417969 0.828125 C 27.363281 0.671875 23.859375 0.546875 23.195312 0.644531 Z M 32.1875 10.164062 C 33.554688 10.3125 34.492188 10.574219 35.597656 11.121094 C 37.570312 12.097656 38.78125 13.503906 39.511719 15.652344 C 40.019531 17.148438 40.039062 17.441406 40.039062 25 C 40.039062 30.722656 40.011719 32.15625 39.894531 32.820312 C 39.179688 36.902344 36.484375 39.355469 32.179688 39.84375 C 31.007812 39.96875 18.976562 39.96875 17.824219 39.84375 C 14.667969 39.480469 12.296875 38.027344 11.074219 35.710938 C 10.625 34.851562 10.285156 33.835938 10.109375 32.820312 C 9.894531 31.621094 9.894531 18.378906 10.109375 17.175781 C 10.382812 15.585938 11.027344 14.109375 11.90625 13.035156 C 13.144531 11.523438 15.332031 10.4375 17.675781 10.164062 C 18.769531 10.039062 31.066406 10.039062 32.1875 10.164062 Z M 32.1875 10.164062 "/>
<path style=" stroke:none;fill-rule:nonzero;fill:rgb(0%,0%,0%);fill-opacity:1;" d="M 21.242188 12.898438 C 17.257812 12.96875 17.003906 12.996094 15.664062 13.632812 C 14.414062 14.21875 13.371094 15.59375 12.929688 17.234375 C 12.753906 17.871094 12.746094 18.378906 12.746094 25 C 12.746094 31.621094 12.753906 32.128906 12.929688 32.761719 C 13.371094 34.402344 14.414062 35.78125 15.664062 36.367188 C 17.003906 37 17.246094 37.03125 21.320312 37.097656 C 23.339844 37.128906 26.660156 37.128906 28.691406 37.097656 C 32.753906 37.03125 33 37 34.335938 36.367188 C 35.585938 35.78125 36.632812 34.402344 37.070312 32.761719 C 37.246094 32.128906 37.257812 31.621094 37.257812 25 C 37.257812 18.378906 37.246094 17.871094 37.070312 17.234375 C 36.632812 15.59375 35.585938 14.21875 34.335938 13.632812 C 33.105469 13.046875 32.628906 12.96875 30.03125 12.929688 C 28.742188 12.910156 27.050781 12.878906 26.269531 12.859375 C 25.488281 12.851562 23.234375 12.871094 21.242188 12.898438 Z M 33.632812 15.664062 C 33.808594 15.742188 34.082031 15.964844 34.238281 16.171875 C 34.472656 16.472656 34.523438 16.628906 34.523438 17.097656 C 34.523438 17.519531 34.472656 17.734375 34.316406 17.9375 C 33.585938 18.925781 32.199219 18.90625 31.613281 17.890625 C 31.367188 17.46875 31.367188 16.71875 31.601562 16.308594 C 31.992188 15.644531 32.902344 15.359375 33.632812 15.664062 Z M 26.828125 17.285156 C 30.441406 18.144531 32.910156 21.289062 32.910156 25 C 32.910156 29.433594 29.433594 32.910156 25 32.910156 C 20.578125 32.910156 17.089844 29.421875 17.089844 25 C 17.089844 21.308594 19.542969 18.171875 23.125 17.285156 C 24.171875 17.03125 25.773438 17.03125 26.828125 17.285156 Z M 26.828125 17.285156 "/>
<path style=" stroke:none;fill-rule:nonzero;fill:rgb(0%,0%,0%);fill-opacity:1;" d="M 23.4375 20.144531 C 21.75 20.722656 20.578125 21.941406 20.078125 23.621094 C 19.992188 23.933594 19.921875 24.511719 19.921875 25 C 19.921875 26.425781 20.429688 27.65625 21.398438 28.613281 C 22.382812 29.589844 23.585938 30.078125 25 30.078125 C 26.425781 30.078125 27.65625 29.570312 28.613281 28.601562 C 29.589844 27.617188 30.078125 26.414062 30.078125 25 C 30.078125 22.664062 28.625 20.742188 26.378906 20.078125 C 25.578125 19.84375 24.230469 19.871094 23.4375 20.144531 Z M 23.4375 20.144531 "/>
</g>
</svg>
