<?xml version="1.0" standalone="no"?>
<!DOCTYPE svg PUBLIC "-//W3C//DTD SVG 20010904//EN"
 "http://www.w3.org/TR/2001/REC-SVG-20010904/DTD/svg10.dtd">
<svg version="1.0" xmlns="http://www.w3.org/2000/svg"
 width="1024.000000pt" height="1024.000000pt" viewBox="0 0 1024.000000 1024.000000"
 preserveAspectRatio="xMidYMid meet">

<g transform="translate(0.000000,1024.000000) scale(0.100000,-0.100000)"
fill="#000000" stroke="none">
<path d="M1070 8178 c25 -23 93 -87 152 -143 l108 -100 -665 -1492 c-366 -821
-665 -1494 -665 -1497 0 -4 586 -6 1303 -6 l1302 0 595 1335 595 1335 232 0
c128 0 233 -2 233 -5 0 -3 -266 -602 -590 -1330 -325 -728 -590 -1327 -590
-1330 0 -3 205 -4 456 -3 l455 3 144 333 145 332 -113 108 c-61 59 -145 139
-184 176 -40 38 -73 73 -73 78 0 4 523 8 1163 8 l1162 1 360 811 c198 446 361
816 363 824 2 7 -142 146 -320 308 l-323 296 -2645 0 -2645 -1 45 -41z"/>
<path d="M4140 5838 c25 -23 93 -87 152 -143 l108 -100 -364 -818 -364 -817
1540 0 c1228 0 1539 -3 1535 -12 -26 -63 -321 -715 -326 -721 -4 -4 -111 -6
-238 -5 l-231 3 89 200 c49 109 92 207 95 217 5 17 -51 18 -1298 18 l-1303 0
-227 -513 c-125 -281 -230 -520 -234 -529 -6 -17 111 -18 2372 -18 l2378 0
601 311 c330 171 601 312 603 314 5 4 592 1323 592 1330 0 3 -690 6 -1534 7
l-1534 3 157 352 156 353 233 0 c127 0 232 -2 232 -5 0 -3 -32 -76 -71 -163
-40 -86 -82 -181 -95 -209 l-24 -53 1303 0 1302 0 230 511 c127 281 232 515
233 520 2 5 -1225 9 -3055 9 l-3058 -1 45 -41z"/>
</g>
</svg>
